<?xml version="1.0" encoding="UTF-8"?>
<svg width="320px" height="44px" viewBox="0 0 320 44" version="1.1" xmlns="http://www.w3.org/2000/svg" xmlns:xlink="http://www.w3.org/1999/xlink">
    <title>lianlianglobal</title>
    <g id="lianlianglobal" stroke="none" stroke-width="1" fill="none" fill-rule="evenodd">
        <g id="lianlianglobal" fill="#0E59F0" fill-rule="nonzero">
            <path d="M42.031,34.906 C42.031,33.819 42.383,32.96 43.106,32.28 C44.628,30.851 47.73,30.155 52.59,30.155 C53.491,30.155 54.446,30.179 55.506,30.227 L55.506,38.524 C54.217,38.889 51.797,39.254 49.596,39.254 C46.145,39.254 42.031,38.499 42.031,34.906 Z M48.769,16.83 C45.626,16.83 42.37,17.578 40.273,18.784 L39.737,19.091 L39.736,23.83 L39.861,23.724 C39.89,23.699 42.871,21.233 48.541,20.954 C51.229,20.822 53.182,21.316 54.346,22.42 C55.147,23.181 55.553,24.231 55.553,25.54 L55.553,26.265 C49.723,26.063 43.338,26.286 40.06,29.405 C38.602,30.793 37.863,32.645 37.863,34.91 C37.863,40.124 42.251,43.236 49.601,43.236 C52.875,43.236 56.378,42.672 58.972,41.725 L59.675,41.469 L59.675,25.386 C59.675,19.709 56.006,16.83 48.769,16.83 L48.769,16.83 Z" id="Fill-1"></path>
            <path d="M4.472,37.66 L4.472,0.918 L0.303,0.918 L0.303,37.769 C0.303,40.498 2.528,42.717 5.262,42.717 L26.168,42.717 L26.168,38.559 L5.37,38.559 C4.875,38.559 4.472,38.156 4.472,37.66" id="Fill-2"></path>
            <path d="M75.968,16.83 C72.906,16.83 70.275,17.494 67.928,18.86 L67.928,18.156 L63.857,18.156 L63.857,42.717 L68.026,42.717 L68.041,24.417 C68.041,23.37 71.006,20.989 75.889,20.989 C81.805,20.989 83.048,24.089 83.048,26.688 L83.032,42.642 L83.032,42.717 L87.215,42.717 L87.215,26.409 C87.215,20.411 83.011,16.83 75.968,16.83" id="Fill-3"></path>
            <polygon id="Fill-4" points="29.514 42.722 33.681 42.722 33.681 17.91 29.514 17.91"></polygon>
            <polygon id="Fill-5" points="29.514 15.342 33.681 15.342 33.681 9.379 29.514 9.379"></polygon>
            <path d="M136.463,34.906 C136.463,33.819 136.814,32.96 137.537,32.28 C139.059,30.851 142.161,30.155 147.021,30.155 C147.923,30.155 148.877,30.179 149.937,30.227 L149.937,38.524 C148.649,38.889 146.228,39.254 144.027,39.254 C140.576,39.254 136.463,38.499 136.463,34.906 Z M143.2,16.83 C140.057,16.83 136.802,17.578 134.704,18.784 L134.168,19.091 L134.168,23.83 L134.293,23.724 C134.322,23.699 137.303,21.233 142.973,20.954 C145.66,20.822 147.614,21.316 148.777,22.42 C149.578,23.181 149.985,24.231 149.985,25.54 L149.985,26.265 C144.154,26.063 137.769,26.286 134.492,29.405 C133.033,30.793 132.294,32.645 132.294,34.91 C132.294,40.124 136.682,43.236 144.033,43.236 C147.306,43.236 150.81,42.672 153.403,41.725 L154.106,41.469 L154.106,25.386 C154.106,19.709 150.437,16.83 143.2,16.83 L143.2,16.83 Z" id="Fill-6"></path>
            <path d="M98.903,37.66 L98.903,0.918 L94.734,0.918 L94.734,37.769 C94.734,40.498 96.959,42.717 99.693,42.717 L120.599,42.717 L120.599,38.559 L99.802,38.559 C99.306,38.559 98.903,38.156 98.903,37.66" id="Fill-7"></path>
            <path d="M170.399,16.83 C167.338,16.83 164.706,17.494 162.359,18.86 L162.359,18.156 L158.288,18.156 L158.288,42.717 L162.457,42.717 L162.472,24.417 C162.472,23.37 165.437,20.989 170.32,20.989 C176.237,20.989 177.479,24.089 177.479,26.688 L177.463,42.642 L177.463,42.717 L181.646,42.717 L181.646,26.409 C181.646,20.411 177.442,16.83 170.399,16.83" id="Fill-8"></path>
            <polygon id="Fill-9" points="123.945 42.722 128.113 42.722 128.113 17.91 123.945 17.91"></polygon>
            <polygon id="Fill-10" points="123.945 15.342 128.113 15.342 128.113 9.379 123.945 9.379"></polygon>
            <path d="M293.64,34.906 C293.64,33.819 293.991,32.96 294.714,32.28 C296.237,30.851 299.339,30.155 304.198,30.155 C305.099,30.155 306.054,30.179 307.115,30.227 L307.115,38.524 C305.825,38.889 303.405,39.254 301.204,39.254 C297.753,39.254 293.64,38.499 293.64,34.906 Z M300.378,16.83 C297.235,16.83 293.979,17.578 291.881,18.784 L291.345,19.091 L291.345,23.83 L291.47,23.724 C291.499,23.699 294.479,21.233 300.15,20.954 C302.837,20.822 304.791,21.316 305.954,22.42 C306.756,23.181 307.162,24.231 307.162,25.54 L307.162,26.265 C301.328,26.063 294.947,26.287 291.668,29.405 C290.211,30.793 289.471,32.645 289.471,34.91 C289.471,40.124 293.859,43.236 301.209,43.236 C304.484,43.236 307.987,42.672 310.58,41.725 L311.283,41.469 L311.283,25.386 C311.283,19.709 307.615,16.83 300.378,16.83 L300.378,16.83 Z" id="Fill-11"></path>
            <polygon id="Fill-12" points="228.687 42.723 232.854 42.723 232.854 0.918 228.687 0.918"></polygon>
            <polygon id="Fill-13" points="315.465 42.723 319.633 42.723 319.633 0.918 315.465 0.918"></polygon>
            <path d="M255.306,30.075 C255.306,36.146 252.934,39.225 248.256,39.225 C243.577,39.225 241.205,36.146 241.205,30.075 C241.205,24.003 243.577,20.924 248.256,20.924 C252.934,20.924 255.306,24.003 255.306,30.075 Z M248.256,16.831 C244.883,16.831 237.036,18.122 237.036,30.075 C237.036,42.028 244.883,43.318 248.256,43.318 C251.629,43.318 259.475,42.028 259.475,30.075 C259.475,18.122 251.629,16.831 248.256,16.831 L248.256,16.831 Z" id="Fill-14"></path>
            <path d="M281.965,30.098 C281.965,36.083 278.817,39.118 272.608,39.118 C271.381,39.118 269.773,38.87 267.826,38.38 L267.826,21.908 C269.158,21.356 270.767,21.076 272.608,21.076 C278.817,21.076 281.965,24.112 281.965,30.098 Z M272.608,16.917 C270.894,16.917 269.286,17.121 267.826,17.524 L267.826,0.918 L263.657,0.918 L263.657,41.559 L263.774,41.559 C266.726,42.452 269.838,43.278 272.608,43.278 C281.204,43.278 286.134,38.474 286.134,30.098 C286.134,21.721 281.204,16.917 272.608,16.917 L272.608,16.917 Z" id="Fill-15"></path>
            <path d="M220.922,20.533 L208.768,20.533 L208.768,24.693 L219.448,24.693 C219.938,24.693 220.337,25.091 220.337,25.579 L220.337,37.553 C217.77,38.575 211.259,40.56 205.155,37.478 C201.528,35.646 198.803,31.515 197.866,26.426 C196.731,20.268 198.388,14.033 202.3,9.749 C205.348,6.41 209.203,4.846 213.756,5.095 C217.501,5.302 220.781,6.713 222.402,7.535 L222.512,7.591 L222.512,2.979 L222.466,2.959 C218.783,1.417 214.791,0.727 211.223,1.015 C206.504,1.396 202.465,3.392 199.218,6.948 C194.435,12.187 192.397,19.75 193.765,27.178 C194.936,33.537 198.491,38.775 203.273,41.189 C206.059,42.595 209.13,43.308 212.402,43.308 C218.452,43.308 223.196,40.847 223.395,40.742 L224.505,40.157 L224.505,24.181 C224.505,22.17 222.898,20.533 220.922,20.533" id="Fill-16"></path>
        </g>
    </g>
</svg>